<svg width="16" height="16" viewBox="0 0 16 16" fill="none" xmlns="http://www.w3.org/2000/svg">
<path d="M8.11191 0.00074328C3.61288 -0.0600202 -0.0600231 3.61271 0.000743315 8.11152C0.0607405 12.4261 3.57404 15.9392 7.88884 15.9992C12.3886 16.0608 16.0608 12.388 15.9992 7.88923C15.94 3.57387 12.4267 0.0607376 8.11191 0.00074328ZM12.974 12.5861C12.9587 12.6027 12.9399 12.6157 12.919 12.6242C12.8981 12.6327 12.8756 12.6365 12.853 12.6353C12.8305 12.6341 12.8085 12.628 12.7886 12.6174C12.7687 12.6067 12.7514 12.5919 12.7378 12.5738C12.3938 12.1237 11.9726 11.7384 11.4937 11.4358C10.5145 10.8074 9.27378 10.4613 8.00037 10.4613C6.72697 10.4613 5.48626 10.8074 4.50707 11.4358C4.0282 11.7383 3.60692 12.1235 3.2629 12.5734C3.24939 12.5915 3.23206 12.6063 3.21215 12.617C3.19225 12.6276 3.17025 12.6337 3.14771 12.6349C3.12518 12.6361 3.10266 12.6323 3.08176 12.6238C3.06085 12.6153 3.04208 12.6023 3.02676 12.5857C1.89822 11.3675 1.25895 9.77571 1.23146 8.11536C1.16877 4.37302 4.23978 1.24063 7.98384 1.2314C11.7279 1.22217 14.7693 4.26227 14.7693 7.99999C14.7706 9.70037 14.1293 11.3385 12.974 12.5861Z" fill="#1E1E21"/>
<path d="M8.00155 3.69287C7.24312 3.69287 6.55739 3.97708 6.0701 4.49357C5.58282 5.01006 5.33937 5.72422 5.39436 6.49068C5.5059 8.00016 6.67546 9.23081 8.00155 9.23081C9.32764 9.23081 10.4949 8.00016 10.6087 6.49107C10.6657 5.73191 10.4241 5.02428 9.92877 4.49818C9.43956 3.979 8.75498 3.69287 8.00155 3.69287Z" fill="#1E1E21"/>
</svg>
