<svg width="10" height="10" viewBox="0 0 10 10" fill="none" xmlns="http://www.w3.org/2000/svg">
<path d="M9.6899 8.19219C10.1034 8.60582 10.1034 9.27623 9.6899 9.68969C9.48309 9.89651 9.21208 9.99992 8.94107 9.99992C8.67006 9.99992 8.39904 9.89651 8.19223 9.68969L5 6.49746L1.80777 9.68986C1.60095 9.89651 1.32994 9.99992 1.05893 9.99992C0.787924 9.99992 0.516913 9.89651 0.310098 9.68986C-0.103366 9.27623 -0.103366 8.60582 0.310098 8.19235L3.50249 4.99996L0.310098 1.80773C-0.103366 1.3941 -0.103366 0.723687 0.310098 0.310222C0.723728 -0.103407 1.39414 -0.103407 1.8076 0.310222L5 3.50245L8.19223 0.310222C8.60586 -0.103242 9.27627 -0.103407 9.68974 0.310222C10.1034 0.723687 10.1034 1.3941 9.68974 1.80773L6.49751 4.99996L9.6899 8.19219Z" fill="white"/>
</svg>
