<svg width="12" height="16" viewBox="0 0 12 16" fill="none" xmlns="http://www.w3.org/2000/svg">
<path fill-rule="evenodd" clip-rule="evenodd" d="M2.66536 0.083252H8.08203L11.832 3.83325V13.4166C11.832 13.6376 11.7442 13.8496 11.588 14.0058C11.4317 14.1621 11.2197 14.2499 10.9987 14.2499H2.66536C2.44435 14.2499 2.23239 14.1621 2.07611 14.0058C1.91983 13.8496 1.83203 13.6376 1.83203 13.4166V0.916585C1.83203 0.695572 1.91983 0.48361 2.07611 0.32733C2.23239 0.171049 2.44435 0.083252 2.66536 0.083252ZM10.582 3.83325L8.08203 1.33325V3.41659C8.08203 3.52709 8.12593 3.63307 8.20407 3.71121C8.28221 3.78935 8.38819 3.83325 8.4987 3.83325H10.582ZM9.62661 6.872C9.70473 6.95014 9.74861 7.0561 9.74861 7.16659C9.74861 7.27707 9.70473 7.38303 9.62661 7.46117L5.9987 11.0891L4.03745 9.12784C3.96155 9.04925 3.91955 8.944 3.9205 8.83475C3.92145 8.7255 3.96527 8.621 4.04252 8.54375C4.11978 8.46649 4.22428 8.42267 4.33353 8.42172C4.44278 8.42077 4.54803 8.46277 4.62661 8.53867L5.9987 9.91075L9.03745 6.872C9.11558 6.79389 9.22155 6.75001 9.33203 6.75001C9.44252 6.75001 9.54848 6.79389 9.62661 6.872Z" fill="#1E1E21"/>
<path d="M0.999349 2.58325H0.166016V13.8333C0.166016 14.3858 0.385509 14.9157 0.77621 15.3064C1.16691 15.6971 1.69681 15.9166 2.24935 15.9166H10.166V15.0833H2.24935C1.91783 15.0833 1.59989 14.9516 1.36547 14.7171C1.13104 14.4827 0.999349 14.1648 0.999349 13.8333V2.58325Z" fill="#1E1E21"/>
</svg>
