<svg width="24" height="24" viewBox="0 0 24 24" fill="none" xmlns="http://www.w3.org/2000/svg">
<path d="M3.74907 22.0001C3.84757 22.0003 3.94513 21.9809 4.03612 21.9432C4.12712 21.9054 4.20974 21.8501 4.27922 21.7803L20.7792 5.28025C20.9139 5.13845 20.9879 4.94964 20.9854 4.75407C20.9829 4.5585 20.9041 4.37164 20.7658 4.23334C20.6275 4.09504 20.4407 4.01624 20.2451 4.01373C20.0495 4.01123 19.8607 4.08522 19.7189 4.21994L3.21891 20.7199C3.11409 20.8248 3.04272 20.9584 3.01381 21.1039C2.9849 21.2493 2.99975 21.4001 3.05648 21.5371C3.11322 21.6741 3.2093 21.7912 3.33257 21.8736C3.45584 21.956 3.60078 22 3.74907 22.0001ZM12.015 19.0001C13.9598 19.0001 15.8353 18.4245 17.5894 17.2892C19.1864 16.2579 20.6241 14.7809 21.7472 13.0235V13.0198C20.8125 11.6806 19.7888 10.5481 18.6891 9.63494C18.6791 9.62662 18.671 9.61633 18.6652 9.60472C18.6595 9.59311 18.6562 9.58042 18.6556 9.56747C18.6549 9.55452 18.657 9.54158 18.6617 9.52947C18.6663 9.51736 18.6734 9.50635 18.6825 9.49713L19.6163 8.56478C19.6328 8.54805 19.6551 8.53818 19.6787 8.53714C19.7022 8.5361 19.7253 8.54396 19.7433 8.55916C20.9114 9.54353 21.9956 10.751 22.9814 12.1648C23.151 12.4082 23.2444 12.6966 23.2498 12.9932C23.2551 13.2898 23.1721 13.5813 23.0114 13.8307C21.7734 15.7681 20.1802 17.3998 18.4045 18.5487C16.4053 19.8438 14.2538 20.5001 12.015 20.5001C10.8066 20.4963 9.60672 20.2972 8.46188 19.9104C8.44678 19.9053 8.43323 19.8964 8.42252 19.8846C8.41181 19.8728 8.40429 19.8584 8.40068 19.8429C8.39707 19.8273 8.39748 19.8111 8.40187 19.7958C8.40626 19.7805 8.41449 19.7665 8.42578 19.7552L9.43735 18.7437C9.46063 18.721 9.48943 18.7047 9.52091 18.6965C9.55238 18.6883 9.58546 18.6884 9.61688 18.6968C10.4003 18.8985 11.206 19.0004 12.015 19.0001ZM0.990942 12.1845C2.23125 10.2663 3.84047 8.63697 5.64422 7.47213C7.63969 6.18213 9.84282 5.50009 12.015 5.50009C13.2106 5.50222 14.3973 5.70552 15.5255 6.1015C15.5405 6.10673 15.554 6.1157 15.5646 6.12757C15.5752 6.13943 15.5826 6.1538 15.5861 6.16933C15.5896 6.18485 15.5891 6.20101 15.5847 6.21629C15.5802 6.23157 15.5719 6.24546 15.5606 6.25666L14.5505 7.26681C14.527 7.28993 14.4978 7.30643 14.4658 7.31466C14.4339 7.32289 14.4004 7.32256 14.3686 7.31369C13.6013 7.10612 12.8099 7.00067 12.015 7.00009C10.1077 7.00009 8.23781 7.58275 6.45797 8.73447C4.83094 9.78447 3.37641 11.2601 2.25047 13.0001L2.24918 13.0038L2.25047 13.0076C3.06778 14.2943 4.082 15.4447 5.2561 16.4168C5.26615 16.4251 5.27437 16.4354 5.28022 16.447C5.28608 16.4587 5.28945 16.4714 5.29011 16.4844C5.29077 16.4974 5.28871 16.5104 5.28407 16.5226C5.27942 16.5348 5.27229 16.5458 5.26313 16.5551L4.33032 17.4874C4.31381 17.5041 4.29165 17.514 4.26822 17.5151C4.24479 17.5162 4.22179 17.5085 4.20375 17.4935C2.95031 16.4381 1.86531 15.1976 0.986254 13.8148C0.830873 13.5711 0.748718 13.2879 0.74955 12.9989C0.750381 12.7099 0.834164 12.4272 0.990942 12.1845Z" fill="#4D4D57"/>
<path d="M11.9991 8.5C12.3361 8.49982 12.6721 8.53756 13.0008 8.6125C13.0174 8.61595 13.0327 8.62383 13.0452 8.63531C13.0577 8.64679 13.0668 8.66144 13.0716 8.6777C13.0764 8.69395 13.0767 8.71121 13.0725 8.72763C13.0683 8.74405 13.0597 8.75901 13.0476 8.77094L7.76999 14.0472C7.75806 14.0592 7.7431 14.0678 7.72668 14.0721C7.71026 14.0763 7.693 14.076 7.67674 14.0712C7.66049 14.0663 7.64584 14.0572 7.63436 14.0447C7.62288 14.0323 7.615 14.0169 7.61155 14.0003C7.46129 13.3413 7.46143 12.6568 7.61197 11.9979C7.7625 11.3389 8.05956 10.7223 8.48108 10.1938C8.9026 9.66542 9.43775 9.23874 10.0468 8.9455C10.6558 8.65226 11.3231 8.49999 11.9991 8.5ZM16.2281 11.9528C16.24 11.9408 16.255 11.9322 16.2714 11.9279C16.2878 11.9237 16.3051 11.924 16.3214 11.9289C16.3376 11.9337 16.3523 11.9428 16.3637 11.9553C16.3752 11.9677 16.3831 11.9831 16.3866 11.9997C16.5565 12.7424 16.5352 13.516 16.3245 14.2482C16.1138 14.9803 15.7207 15.647 15.182 16.1857C14.6433 16.7245 13.9766 17.1176 13.2444 17.3283C12.5123 17.539 11.7386 17.5603 10.9959 17.3903C10.9793 17.3869 10.964 17.379 10.9515 17.3675C10.939 17.356 10.9299 17.3414 10.9251 17.3251C10.9203 17.3089 10.92 17.2916 10.9242 17.2752C10.9284 17.2588 10.937 17.2438 10.9491 17.2319L16.2281 11.9528Z" fill="#4D4D57"/>
</svg>
