<svg width="14" height="14" viewBox="0 0 14 14" fill="none" xmlns="http://www.w3.org/2000/svg">
<path d="M7.00016 0.360107C3.3335 0.360107 0.333496 3.35344 0.333496 7.04011C0.333496 10.3734 2.7735 13.1401 5.96016 13.6401V8.97344H4.26683V7.04011H5.96016V5.56677C5.96016 3.89344 6.9535 2.97344 8.48016 2.97344C9.20683 2.97344 9.96683 3.10011 9.96683 3.10011V4.74677H9.12683C8.30016 4.74677 8.04016 5.26011 8.04016 5.78677V7.04011H9.8935L9.5935 8.97344H8.04016V13.6401C9.61112 13.392 11.0416 12.5905 12.0734 11.3801C13.1053 10.1698 13.6704 8.63054 13.6668 7.04011C13.6668 3.35344 10.6668 0.360107 7.00016 0.360107Z" fill="#1E1E21"/>
</svg>
