<svg width="16" height="16" viewBox="0 0 16 16" fill="none" xmlns="http://www.w3.org/2000/svg">
<g clip-path="url(#clip0_1802_10603)">
<path d="M15.9893 8.1497C15.9893 7.49419 15.9348 7.01584 15.817 6.51978H8.15625V9.47843H12.6529C12.5623 10.2137 12.0728 11.321 10.9848 12.0651L10.9696 12.1641L13.3917 13.9976L13.5596 14.0139C15.1007 12.6232 15.9893 10.5769 15.9893 8.1497Z" fill="#4285F4"/>
<path d="M8.15625 15.945C10.3593 15.945 12.2087 15.2363 13.5596 14.0139L10.9848 12.065C10.2958 12.5345 9.37106 12.8623 8.15625 12.8623C5.99856 12.8623 4.16725 11.4716 3.51444 9.54932L3.41875 9.55726L0.900125 11.4618L0.867188 11.5513C2.20894 14.1556 4.965 15.945 8.15625 15.945Z" fill="#34A853"/>
<path d="M3.51756 9.54936C3.34531 9.0533 3.24562 8.52176 3.24562 7.97257C3.24562 7.42332 3.34531 6.89184 3.5085 6.39577L3.50394 6.29013L0.95375 4.35498L0.870312 4.39376C0.317313 5.47449 0 6.68811 0 7.97257C0 9.25703 0.317313 10.4706 0.870312 11.5513L3.51756 9.54936Z" fill="#FBBC05"/>
<path d="M8.15625 3.08269C9.68838 3.08269 10.7219 3.72934 11.3112 4.26974L13.6139 2.07285C12.1997 0.788397 10.3593 0 8.15625 0C4.965 0 2.20894 1.78937 0.867188 4.39371L3.50538 6.39573C4.16725 4.47347 5.99856 3.08269 8.15625 3.08269Z" fill="#EB4335"/>
</g>
<defs>
<clipPath id="clip0_1802_10603">
<rect width="16" height="16" fill="white"/>
</clipPath>
</defs>
</svg>
