<svg width="24" height="24" viewBox="0 0 24 24" fill="none" xmlns="http://www.w3.org/2000/svg">
<path d="M12.0044 3C8.56094 3 4.96094 5.66087 4.96094 10.0435C4.96094 14.1913 11.2218 20.5304 11.4566 20.7652C11.6131 20.9217 11.7696 21 12.0044 21C12.2392 21 12.3957 20.9217 12.5522 20.7652C12.787 20.5304 19.0479 14.1913 19.0479 10.0435C19.0479 5.66087 15.4479 3 12.0044 3ZM12.0044 12.3913C10.674 12.3913 9.65659 11.3739 9.65659 10.0435C9.65659 8.71304 10.674 7.69565 12.0044 7.69565C13.3349 7.69565 14.3522 8.71304 14.3522 10.0435C14.3522 11.3739 13.3349 12.3913 12.0044 12.3913Z" fill="#1E1E21"/>
</svg>
