<svg width="20" height="20" viewBox="0 0 20 20" fill="none" xmlns="http://www.w3.org/2000/svg">
<path d="M0.833984 15.8333H19.1673V17.5H0.833984V15.8333ZM18.334 2.5H1.66732V15H18.3257L18.334 2.5ZM12.8923 12.525L11.1507 10.7833C10.0257 11.5083 8.50899 11.375 7.51732 10.3917C6.37565 9.25 6.37565 7.40833 7.51732 6.26667C8.65899 5.125 10.5007 5.125 11.6423 6.26667C12.6257 7.25 12.759 8.76667 12.034 9.9L13.7757 11.6417L12.8923 12.525Z" fill="#1E1E21"/>
<path d="M9.58268 10.0001C10.5032 10.0001 11.2493 9.25389 11.2493 8.33341C11.2493 7.41294 10.5032 6.66675 9.58268 6.66675C8.66221 6.66675 7.91602 7.41294 7.91602 8.33341C7.91602 9.25389 8.66221 10.0001 9.58268 10.0001Z" fill="#1E1E21"/>
</svg>
