<svg width="24" height="24" viewBox="0 0 24 24" fill="none" xmlns="http://www.w3.org/2000/svg">
<path d="M22.6 24C19.7333 24 16.9391 23.3667 14.2173 22.1C11.4947 20.8333 9.08356 19.1444 6.984 17.0333C4.88356 14.9222 3.19467 12.5053 1.91733 9.78267C0.639111 7.06089 0 4.26667 0 1.4V0.7C0 0.455556 0.0222222 0.222222 0.0666666 0H7.86667L9.1 6.7L5.3 10.5333C6.23333 12.1333 7.40578 13.6333 8.81733 15.0333C10.228 16.4333 11.7778 17.6444 13.4667 18.6667L17.3333 14.8L24 16.1333V23.9333C23.7778 23.9556 23.5444 23.9724 23.3 23.984C23.0556 23.9947 22.8222 24 22.6 24Z" fill="black"/>
</svg>
