<svg width="15" height="15" viewBox="0 0 15 15" fill="none" xmlns="http://www.w3.org/2000/svg">
<path d="M14.5001 13.7928L10.7241 10.0168C11.6315 8.92747 12.0839 7.53023 11.9874 6.11577C11.8908 4.7013 11.2527 3.37851 10.2057 2.42257C9.15867 1.46663 7.78343 0.951151 6.36604 0.983357C4.94864 1.01556 3.59823 1.59298 2.59573 2.59548C1.59322 3.59799 1.01581 4.9484 0.983601 6.36579C0.951395 7.78318 1.46688 9.15843 2.42282 10.2054C3.37875 11.2524 4.70154 11.8906 6.11601 11.9871C7.53048 12.0837 8.92771 11.6312 10.0171 10.7238L13.7931 14.4998L14.5001 13.7928ZM2.00006 6.49981C2.00006 5.6098 2.26398 4.73977 2.75844 3.99975C3.25291 3.25973 3.95571 2.68295 4.77798 2.34236C5.60025 2.00176 6.50505 1.91265 7.37796 2.08628C8.25088 2.25991 9.0527 2.6885 9.68204 3.31783C10.3114 3.94717 10.74 4.74899 10.9136 5.62191C11.0872 6.49482 10.9981 7.39962 10.6575 8.22189C10.3169 9.04416 9.74014 9.74696 9.00012 10.2414C8.2601 10.7359 7.39007 10.9998 6.50006 10.9998C5.30699 10.9985 4.16317 10.524 3.31954 9.68033C2.47591 8.83671 2.00138 7.69288 2.00006 6.49981Z" fill="#1E1E21"/>
</svg>
