<svg width="16" height="16" viewBox="0 0 16 16" fill="none" xmlns="http://www.w3.org/2000/svg">
<path fill-rule="evenodd" clip-rule="evenodd" d="M6.06997 11.9983L6.06923 11.9983L6.02019 12.0485C5.91709 12.154 5.85938 12.2957 5.85938 12.4433C5.85938 12.5907 5.91702 12.7324 6.02 12.8379C6.07086 12.8901 6.13167 12.9316 6.19884 12.96C6.26601 12.9883 6.33818 13.0029 6.41109 13.0029C6.48399 13.0029 6.55616 12.9883 6.62333 12.96C6.6905 12.9316 6.75131 12.8901 6.80217 12.8379L11.1213 8.40712C11.2274 8.29818 11.2869 8.15207 11.2869 7.99995C11.2869 7.84782 11.2275 7.70171 11.1213 7.59278L6.80111 3.16178C6.75029 3.10991 6.68948 3.06856 6.62254 3.04042C6.55559 3.01229 6.4837 2.9978 6.41109 2.9978C6.33847 2.9978 6.26658 3.01229 6.19963 3.04042C6.13269 3.06856 6.07203 3.10976 6.0212 3.16163C5.91811 3.26718 5.86021 3.40906 5.86021 3.55661C5.86021 3.70413 5.91791 3.8458 6.02097 3.95135V3.95135L9.9675 7.99995L6.06997 11.9983Z" fill="#1E1E21"/>
</svg>
