<svg width="24" height="24" viewBox="0 0 24 24" fill="none" xmlns="http://www.w3.org/2000/svg">
<path fill-rule="evenodd" clip-rule="evenodd" d="M17.9973 9.38474V9.38363L18.0726 9.31007C18.2309 9.15542 18.4435 9.06885 18.6648 9.06885C18.886 9.06885 19.0984 9.15532 19.2567 9.30979C19.3351 9.38608 19.3973 9.4773 19.4399 9.57805C19.4824 9.6788 19.5043 9.78706 19.5043 9.89641C19.5043 10.0058 19.4824 10.114 19.4399 10.2148C19.3973 10.3155 19.3351 10.4067 19.2567 10.483L12.6106 16.9617C12.4471 17.121 12.228 17.2101 11.9998 17.2101C11.7716 17.2101 11.5525 17.121 11.389 16.9617L4.74255 10.4815C4.66474 10.4052 4.60271 10.314 4.56051 10.2136C4.51832 10.1132 4.49658 10.0053 4.49658 9.89641C4.49658 9.78749 4.51832 9.67966 4.56051 9.57924C4.60271 9.47881 4.66452 9.38782 4.74233 9.31159C4.90065 9.15695 5.11347 9.0701 5.33479 9.0701C5.55607 9.0701 5.76858 9.15665 5.9269 9.31124L11.9998 15.231L17.9973 9.38474Z" fill="#1E1E21"/>
</svg>
