<svg width="16" height="16" viewBox="0 0 16 16" fill="none" xmlns="http://www.w3.org/2000/svg">
<path d="M14.9735 4.00008C14.4602 4.23341 13.9069 4.38675 13.3335 4.46008C13.9202 4.10675 14.3735 3.54675 14.5869 2.87341C14.0335 3.20675 13.4202 3.44008 12.7735 3.57341C12.2469 3.00008 11.5069 2.66675 10.6669 2.66675C9.10019 2.66675 7.82019 3.94675 7.82019 5.52675C7.82019 5.75341 7.84686 5.97341 7.89352 6.18008C5.52019 6.06008 3.40686 4.92008 2.00019 3.19341C1.75352 3.61341 1.61352 4.10675 1.61352 4.62675C1.61352 5.62008 2.11352 6.50008 2.88686 7.00008C2.41352 7.00008 1.97352 6.86675 1.58686 6.66675V6.68675C1.58686 8.07341 2.57352 9.23341 3.88019 9.49341C3.46067 9.60822 3.02025 9.62419 2.59352 9.54008C2.77459 10.1084 3.12921 10.6057 3.60753 10.962C4.08585 11.3184 4.66382 11.5159 5.26019 11.5267C4.24928 12.327 2.99619 12.7596 1.70686 12.7534C1.48019 12.7534 1.25352 12.7401 1.02686 12.7134C2.29352 13.5267 3.80019 14.0001 5.41352 14.0001C10.6669 14.0001 13.5535 9.64008 13.5535 5.86008C13.5535 5.73341 13.5535 5.61341 13.5469 5.48675C14.1069 5.08675 14.5869 4.58008 14.9735 4.00008Z" fill="#1E1E21"/>
</svg>
