<svg width="992" height="240" viewBox="0 0 992 240" fill="none" xmlns="http://www.w3.org/2000/svg">
<g clip-path="url(#clip0_1785_25280)">
<mask id="mask0_1785_25280" style="mask-type:luminance" maskUnits="userSpaceOnUse" x="0" y="0" width="1264" height="240">
<path d="M0 -7.15256e-06H1264V240H0V-7.15256e-06Z" fill="white"/>
</mask>
<g mask="url(#mask0_1785_25280)">
<path d="M111.649 97.578C93.8625 93.1833 91.0171 91.3167 91.0171 87.582C91.0171 82.118 97.5865 80.1807 103.206 80.1807C119.156 80.1807 120.358 87.4887 120.812 90.2407L121.373 93.65H167.024L166.821 89.3847C166.332 79.1487 160.317 45.746 103.361 45.746C65.1291 45.746 40.4238 64.3807 40.4238 93.2167C40.4238 113.939 54.2385 125.558 89.7025 134.653C110.613 140.015 110.613 143.407 110.613 146.687C110.613 148.725 110.613 154.927 94.2345 154.927C81.8718 154.927 74.8505 150.573 73.3611 141.983L72.7785 138.607H26.2305L26.6065 143.021C28.4038 164.33 41.2771 189.73 92.3811 189.73C135.048 189.73 161.552 171.354 161.552 141.771C161.552 119.202 147.096 106.401 111.649 97.578Z" fill="black"/>
<path d="M308.191 134.33H259.53L258.446 136.717C253.051 148.594 246.378 153.44 235.415 153.44C222.152 153.44 216.236 145.884 216.236 128.94C216.236 110.581 224.67 81.4545 247.308 81.4545C261.056 81.4545 264.103 90.5345 264.238 98.1505L264.31 102.15H313.594L313.456 97.9478C312.415 65.7478 287.73 45.7465 249.032 45.7465C191.482 45.7465 165.27 88.9318 165.27 129.054C165.27 147.298 171.724 189.73 231.494 189.73C270.643 189.73 297.35 171.902 306.694 139.529L308.191 134.33Z" fill="black"/>
<path d="M388.796 103.984H369.136L373.199 84.4938H393.753C404.837 84.4938 404.837 90.4364 404.837 92.6738C404.837 102.022 396.112 103.984 388.796 103.984ZM437.953 155.72C440.94 141.576 438.727 130.551 431.552 123.35C446.573 116.256 454.74 103.815 454.74 87.6911C454.74 64.0124 435.469 48.7111 405.643 48.7111H333.288L304.109 186.767H351.735L361.819 138.728H383.219C386.012 138.728 389.613 139.059 390.888 140.639C392.831 143.043 391.248 150.399 390.739 152.764C387.496 166.958 386.695 176.44 388.14 183.511L388.808 186.767H435.627L434.995 182.144C434.239 176.603 435.231 167.732 437.953 155.72Z" fill="black"/>
<path d="M520.707 124.7C526.814 112.838 531.946 102.526 535.94 94.1031C536.879 102.632 538.207 113.019 539.854 124.7H520.707ZM515.26 48.7111L436.203 186.767H487.518L501.796 161.914H544.9L548.599 186.767H597.396L573.415 48.7111H515.26Z" fill="black"/>
<path d="M688.716 98.7578H666.861L670.072 83.8351H692.268C702.357 83.8351 702.357 88.1644 702.357 90.4911C702.357 93.1751 702.357 98.7578 688.716 98.7578ZM678.48 151.827H655.644L659.505 133.5H682.81C695.246 133.5 695.246 139.422 695.246 141.366C695.246 146.799 693.216 151.827 678.48 151.827ZM732.41 115.767C744.922 109.364 751.928 98.4418 751.928 84.8458C751.928 61.8818 734.446 48.7111 703.968 48.7111H629.756L600.508 186.767H683.285C722.114 186.767 745.364 169.747 745.473 141.227C745.473 129.514 739.573 121.026 732.41 115.767Z" fill="black"/>
<path d="M744.551 186.767H792.916L822.163 48.7106H773.799L744.551 186.767Z" fill="black"/>
<path d="M830.298 48.7106L822.309 85.9906H863.41L842.135 186.767H890.503L911.661 85.9906H952.669L960.658 48.7106H830.298Z" fill="black"/>
</g>
</g>
<defs>
<clipPath id="clip0_1785_25280">
<rect width="992" height="240" fill="white"/>
</clipPath>
</defs>
</svg>
