<svg id="Шар_1" data-name="Шар 1" xmlns="http://www.w3.org/2000/svg" xmlns:xlink="http://www.w3.org/1999/xlink" viewBox="0 0 1264 240">
  <defs>
    <style>
      .cls-1 {
        fill: #fff;
      }

      .cls-2 {
        mask: url(#mask);
      }

      .cls-3 {
        fill: url(#Градієнт_без_назви_7);
      }
    </style>
    <mask id="mask" x="0" y="0" width="1264" height="240" maskUnits="userSpaceOnUse">
      <g id="mask0_2488_25001" data-name="mask0 2488 25001">
        <path class="cls-1" d="M0,0H1264V240H0Z"/>
      </g>
    </mask>
    <linearGradient id="Градієнт_без_назви_7" data-name="Градієнт без назви 7" x1="913.74" y1="117.74" x2="1237.77" y2="117.74" gradientUnits="userSpaceOnUse">
      <stop offset="0.23" stop-color="#55a5ed"/>
      <stop offset="0.6" stop-color="#93eacf"/>
      <stop offset="1" stop-color="#80ffa6"/>
    </linearGradient>
  </defs>
  <g>
    <g class="cls-2">
      <g>
        <path d="M111.65,97.58C93.86,93.18,91,91.32,91,87.58c0-5.46,6.56-7.4,12.19-7.4,15.94,0,17.15,7.31,17.6,10.06l.56,3.41H167l-.2-4.27c-.49-10.23-6.5-43.63-63.46-43.63-38.23,0-62.94,18.63-62.94,47.47,0,20.72,13.82,32.34,49.28,41.43,20.91,5.37,20.91,8.76,20.91,12,0,2,0,8.24-16.38,8.24-12.36,0-19.38-4.36-20.87-13l-.58-3.37H26.23L26.6,143c1.8,21.31,14.68,46.71,65.78,46.71,42.67,0,69.17-18.38,69.17-48C161.55,119.2,147.09,106.4,111.65,97.58Z"/>
        <path d="M308.19,134.33H259.53l-1.08,2.39c-5.4,11.88-12.07,16.72-23,16.72-13.26,0-19.17-7.56-19.17-24.5,0-18.36,8.43-47.49,31.07-47.49,13.75,0,16.79,9.08,16.93,16.7l.07,4h49.28l-.13-4.2c-1-32.2-25.73-52.2-64.43-52.2-57.55,0-83.76,43.18-83.76,83.3,0,18.25,6.45,60.68,66.22,60.68,39.15,0,65.86-17.83,75.2-50.2Z"/>
        <path d="M388.79,104H369.13l4.07-19.49h20.55c11.08,0,11.08,6,11.08,8.18C404.83,102,396.11,104,388.79,104ZM438,155.72c3-14.14.78-25.17-6.4-32.37,15-7.09,23.19-19.53,23.19-35.66,0-23.68-19.27-39-49.1-39H333.29L304.11,186.77h47.62l10.09-48h21.4c2.79,0,6.39.33,7.67,1.91,1.94,2.4.36,9.76-.15,12.12-3.25,14.2-4.05,23.68-2.6,30.75l.67,3.26h46.82l-.64-4.63C434.24,176.6,435.23,167.73,438,155.72Z"/>
        <path d="M520.71,124.7c6.1-11.86,11.24-22.17,15.23-30.6.94,8.53,2.27,18.92,3.91,30.6Zm-5.45-76L436.2,186.77h51.32l14.28-24.86h43.1l3.7,24.86h48.8l-24-138.06Z"/>
        <path d="M688.71,98.76H666.86l3.21-14.92h22.19c10.09,0,10.09,4.32,10.09,6.65C702.35,93.18,702.35,98.76,688.71,98.76Zm-10.23,53.07H655.64l3.86-18.33h23.31c12.43,0,12.43,5.92,12.43,7.87C695.24,146.8,693.21,151.83,678.48,151.83Zm53.93-36.06c12.51-6.41,19.51-17.33,19.51-30.92,0-23-17.48-36.14-48-36.14H629.75L600.5,186.77h82.78c38.83,0,62.08-17,62.19-45.54A30.92,30.92,0,0,0,732.41,115.77Z"/>
        <path d="M744.55,186.77h48.36L822.16,48.71H773.79Z"/>
        <path d="M830.29,48.71,822.3,86h41.11L842.13,186.77H890.5L911.66,86h41l8-37.28Z"/>
      </g>
    </g>
    <path class="cls-3" d="M988.38,48.71l-14.5,52.87H933.14l-19.4,85.2h47.74a42.49,42.49,0,0,1-3.58-4.4,43.64,43.64,0,0,1-2.85-4.42,42.2,42.2,0,0,1-5.4-20.55c0-25.92,24.07-47,53.63-47s53.63,21.09,53.63,47A42.21,42.21,0,0,1,1051.5,178a43.64,43.64,0,0,1-2.85,4.42,42.49,42.49,0,0,1-3.58,4.4h52.65a43.83,43.83,0,0,1-3.58-4.4,45.13,45.13,0,0,1-2.82-4.42,42,42,0,0,1-5.4-20.55c0-25.92,24-47,53.63-47s53.63,21.09,53.63,47a42.31,42.31,0,0,1-5.4,20.55,45.45,45.45,0,0,1-2.85,4.42,43.83,43.83,0,0,1-3.58,4.4h56.42l-19.41-85.2h-40.73l-14.5-52.87Z"/>
    <path d="M1046.85,157.41a32.53,32.53,0,0,1-6.83,19.73,33.51,33.51,0,0,1-3.77,4.27,40.24,40.24,0,0,1-5.1,4.26,49.55,49.55,0,0,1-55.74,0,43.71,43.71,0,0,1-5.14-4.26,34.93,34.93,0,0,1-10.56-24c0-20.3,19.56-36.84,43.55-36.84S1046.85,137.11,1046.85,157.41Z"/>
    <path d="M1139.56,120.57c-24,0-43.6,16.54-43.6,36.84a32.46,32.46,0,0,0,6.84,19.73,36.49,36.49,0,0,0,3.77,4.27,39,39,0,0,0,5.06,4.26,49.62,49.62,0,0,0,55.78,0,38.43,38.43,0,0,0,5.09-4.26,36.49,36.49,0,0,0,3.77-4.27,32.46,32.46,0,0,0,6.84-19.73C1183.11,137.11,1163.55,120.57,1139.56,120.57Z"/>
    <path d="M1183.11,157.41a32.48,32.48,0,0,1-6.84,19.73,36.49,36.49,0,0,1-3.77,4.27,38.43,38.43,0,0,1-5.09,4.26,49.62,49.62,0,0,1-55.78,0,39,39,0,0,1-5.06-4.26,36.49,36.49,0,0,1-3.77-4.27,32.48,32.48,0,0,1-6.84-19.73c0-20.3,19.56-36.84,43.6-36.84S1183.11,137.11,1183.11,157.41Z"/>
  </g>
</svg>
