<svg width="18" height="18" viewBox="0 0 18 18" fill="none" xmlns="http://www.w3.org/2000/svg">
<path d="M8.16602 11.7984H8.12352C7.91377 11.7984 7.71262 11.7151 7.56431 11.5668C7.416 11.4185 7.33268 11.2173 7.33268 11.0076C7.33268 10.7866 7.24488 10.5746 7.0886 10.4183C6.93232 10.2621 6.72036 10.1743 6.49935 10.1743C6.27834 10.1743 6.06637 10.2621 5.91009 10.4183C5.75381 10.5746 5.66602 10.7866 5.66602 11.0076C5.66602 11.6594 5.92493 12.2844 6.3858 12.7453C6.84667 13.2062 7.47175 13.4651 8.12352 13.4651H8.16602V14.2984C8.16602 14.5194 8.25381 14.7314 8.41009 14.8877C8.56637 15.044 8.77833 15.1318 8.99935 15.1318C9.22036 15.1318 9.43232 15.044 9.5886 14.8877C9.74488 14.7314 9.83268 14.5194 9.83268 14.2984V13.4651C10.4957 13.4651 11.1316 13.2017 11.6004 12.7329C12.0693 12.264 12.3327 11.6281 12.3327 10.9651C12.3327 10.302 12.0693 9.66616 11.6004 9.19732C11.1316 8.72848 10.4957 8.46509 9.83268 8.46509V6.79842H9.85102C10.301 6.79842 10.666 7.16342 10.666 7.61342C10.666 7.83444 10.7538 8.0464 10.9101 8.20268C11.0664 8.35896 11.2783 8.44675 11.4993 8.44675C11.7204 8.44675 11.9323 8.35896 12.0886 8.20268C12.2449 8.0464 12.3327 7.83444 12.3327 7.61342C12.3327 6.95524 12.0712 6.32402 11.6058 5.85862C11.1404 5.39322 10.5092 5.13175 9.85102 5.13175H9.83268V4.29842C9.83268 4.07741 9.74488 3.86545 9.5886 3.70917C9.43232 3.55289 9.22036 3.46509 8.99935 3.46509C8.77833 3.46509 8.56637 3.55289 8.41009 3.70917C8.25381 3.86545 8.16602 4.07741 8.16602 4.29842V5.13175C7.83771 5.13175 7.51262 5.19642 7.20931 5.32206C6.90599 5.44769 6.63039 5.63184 6.39825 5.86399C6.1661 6.09613 5.98195 6.37173 5.85632 6.67505C5.73068 6.97836 5.66602 7.30345 5.66602 7.63175C5.66602 7.96006 5.73068 8.28515 5.85632 8.58846C5.98195 8.89178 6.1661 9.16738 6.39825 9.39952C6.63039 9.63167 6.90599 9.81582 7.20931 9.94145C7.51262 10.0671 7.83771 10.1318 8.16602 10.1318V11.7984ZM9.83268 11.7984V10.1318C10.0537 10.1318 10.2657 10.2196 10.4219 10.3758C10.5782 10.5321 10.666 10.7441 10.666 10.9651C10.666 11.1861 10.5782 11.3981 10.4219 11.5543C10.2657 11.7106 10.0537 11.7984 9.83268 11.7984ZM8.16602 6.79842V8.46509C7.945 8.46509 7.73304 8.37729 7.57676 8.22101C7.42048 8.06473 7.33268 7.85277 7.33268 7.63175C7.33268 7.41074 7.42048 7.19878 7.57676 7.0425C7.73304 6.88622 7.945 6.79842 8.16602 6.79842ZM8.99935 17.6318C4.39685 17.6318 0.666016 13.9009 0.666016 9.29842C0.666016 4.69592 4.39685 0.965088 8.99935 0.965088C13.6018 0.965088 17.3327 4.69592 17.3327 9.29842C17.3327 13.9009 13.6018 17.6318 8.99935 17.6318Z" fill="#1E1E21"/>
</svg>
