<svg width="24" height="24" viewBox="0 0 24 24" fill="none" xmlns="http://www.w3.org/2000/svg">
<path d="M12.1729 0.164858C12.3794 0 12.5033 0 13.1643 0C13.4947 0 13.9904 0.0412263 14.2795 0.0824525C15.6427 0.247311 16.5102 0.453396 17.7081 1.03038C18.906 1.6074 19.6496 2.14316 20.6823 3.09113C21.6323 3.99787 22.1281 4.69853 22.7063 5.81132C23.4912 7.33627 23.9043 9.10853 23.9869 11.0868C24.0282 11.7463 23.9869 11.9111 23.8217 12.1172C23.5325 12.4881 22.8716 12.4469 22.6238 11.9936C22.5411 11.8699 22.5411 11.7463 22.4998 11.2105C22.4585 10.3862 22.4172 9.85042 22.2933 9.19098C21.8389 6.67688 20.5997 4.65735 18.6169 3.21481C16.9646 2.01957 15.5188 1.56622 13.2882 1.40137C12.5034 1.40137 12.3794 1.40137 12.2142 1.23651C11.8837 1.03038 11.8837 0.453349 12.1729 0.164858Z" fill="#1E1E21"/>
<path d="M16.2559 5.31809C15.4711 4.86474 14.2732 4.49379 13.1992 4.41134C12.8274 4.37012 12.5796 4.28771 12.4556 4.12285C12.2077 3.91677 12.2077 3.54582 12.373 3.29856C12.5795 2.96884 12.91 2.92762 13.86 3.09247C16.2559 3.42219 18.1147 4.53502 19.354 6.30724C20.0562 7.29639 20.4693 8.49162 20.5932 9.72808C20.6345 10.1814 20.6345 11.0058 20.5932 11.1706C20.5519 11.2943 20.3867 11.5003 20.2214 11.5416C20.0562 11.624 19.7257 11.624 19.5605 11.5003C19.2714 11.3355 19.1474 11.1294 19.1474 10.47C19.1474 9.48082 18.8996 8.40921 18.4039 7.58492C17.9082 6.63695 17.1647 5.85389 16.2559 5.31809Z" fill="#1E1E21"/>
<path d="M17.2894 10.7592C17.0415 10.9653 16.6285 10.9653 16.3806 10.7592C16.1741 10.6356 16.1327 10.4707 16.0915 10.0585C16.0502 9.52275 15.9262 9.1518 15.8023 8.82209C15.4719 8.0802 14.8523 7.7093 13.8196 7.58563C13.3239 7.5444 13.2 7.46199 13.0348 7.29714C12.7456 6.96742 12.8695 6.43162 13.2413 6.22553C13.4065 6.14308 13.4478 6.14308 13.7783 6.18431C13.9849 6.18431 14.274 6.22553 14.4392 6.26676C15.2241 6.43162 15.8024 6.72011 16.3394 7.1735C17.0003 7.79171 17.3721 8.49237 17.496 9.56397C17.5785 10.2646 17.5372 10.5531 17.2894 10.7592Z" fill="#1E1E21"/>
<path d="M23.9404 19.5352C23.9404 19.1643 23.8165 18.8758 23.5686 18.5873C23.3207 18.2988 21.6271 16.9387 20.801 16.4029C20.1814 15.9907 19.2313 15.4138 18.8182 15.2077C18.2399 14.9192 17.6616 14.878 17.1246 15.0428C17.0007 15.084 16.9181 15.1253 16.8355 15.1665C16.5876 15.2901 16.3811 15.5374 15.8854 16.1144C15.555 16.5265 15.2658 16.8974 15.2245 16.8974C15.2245 16.8974 15.1832 16.8974 15.1832 16.9387C15.1419 16.9799 15.0179 17.0211 14.9353 17.0623C14.3983 17.3096 13.6961 17.1448 12.5395 16.609C11.6307 16.1556 10.8458 15.6198 9.93706 14.7955C9.15224 14.0948 8.36736 13.2293 7.95431 12.5287C7.37598 11.6219 6.96293 10.4679 6.96293 9.80848C6.96293 9.51999 7.08684 9.14905 7.2108 8.94297L7.25212 8.90174C7.25212 8.90174 7.25212 8.90174 7.29344 8.86051C7.33476 8.81929 7.37608 8.77806 7.41735 8.77806C7.58258 8.65443 7.78913 8.44835 7.99568 8.28349C8.94573 7.5416 9.15228 7.29434 9.27624 6.88217C9.40015 6.47 9.27624 5.93424 8.86314 5.19236C8.11949 3.83231 6.05415 1.23576 5.31059 0.74118C5.18668 0.658728 4.98013 0.576322 4.85622 0.493869C4.52576 0.411417 4.0714 0.370237 3.82353 0.411417C3.45175 0.493869 2.99738 0.78236 1.96469 1.5242C1.34509 1.97755 0.518893 2.76066 0.312391 3.09038C-0.141978 3.87344 -0.100706 4.4917 0.436302 6.01665C0.93199 7.37674 1.59291 8.73683 2.33646 10.0557L2.37778 10.0969C2.54301 10.3442 2.70824 10.6327 2.87347 10.88C2.87347 10.9212 2.91479 10.9212 2.91479 10.9624C3.08002 11.2098 3.24525 11.4982 3.41048 11.7455C3.49312 11.828 3.53439 11.9516 3.61703 12.034C3.74094 12.2401 3.86489 12.4049 4.03012 12.611C4.23667 12.8995 4.44322 13.1881 4.69104 13.4765C7.04557 16.5265 9.77188 18.9994 12.9939 21.0189C13.0352 21.0601 13.0765 21.0601 13.1178 21.1014C13.6135 21.3898 14.1092 21.6784 14.6049 21.9669C14.6875 22.0081 14.7288 22.0493 14.8114 22.0905C15.3071 22.379 15.8441 22.6263 16.3811 22.8736C16.4224 22.9148 16.505 22.9148 16.5463 22.956C17.0833 23.2033 17.6616 23.4506 18.2399 23.6979C18.9422 23.9864 19.19 24.0276 19.727 23.9864C19.9749 23.9864 20.2227 23.9452 20.4292 23.8628C20.7597 23.7803 21.0488 23.6155 21.4206 23.3682C21.5033 23.327 21.5445 23.2857 21.6272 23.2446C21.7098 23.2033 21.7924 23.1209 21.875 23.0385C22.3294 22.6675 22.8251 22.0906 23.2382 21.5547C23.5273 21.1838 23.7339 20.8129 23.8578 20.5244C23.8991 20.1122 23.9404 19.8237 23.9404 19.5352Z" fill="#1E1E21"/>
</svg>
