<svg width="16" height="18" viewBox="0 0 16 18" fill="none" xmlns="http://www.w3.org/2000/svg">
<path d="M8.00442 0C4.56094 0 0.960938 2.66087 0.960938 7.04348C0.960938 11.1913 7.22181 17.5304 7.45659 17.7652C7.61311 17.9217 7.76963 18 8.00442 18C8.2392 18 8.39572 17.9217 8.55224 17.7652C8.78702 17.5304 15.0479 11.1913 15.0479 7.04348C15.0479 2.66087 11.4479 0 8.00442 0ZM8.00442 9.3913C6.67398 9.3913 5.65659 8.37391 5.65659 7.04348C5.65659 5.71304 6.67398 4.69565 8.00442 4.69565C9.33485 4.69565 10.3522 5.71304 10.3522 7.04348C10.3522 8.37391 9.33485 9.3913 8.00442 9.3913Z" fill="#1E1E21"/>
</svg>
