<svg width="131" height="100%" viewBox="0 0 131 32" fill="none" xmlns="http://www.w3.org/2000/svg"><g clip-path="url(#prefix__clip0)"><path d="M34.245 11.338h13.197v2.464H42.26V27.64h-2.855V13.802h-5.16v-2.464zm12.626 4.498h2.442v2.283h.046a2.62 2.62 0 01.443-.936c.23-.313.5-.593.805-.833a4.024 4.024 0 011.036-.605 3.11 3.11 0 011.163-.23c.21-.005.42.003.629.021.115.017.23.032.354.046v2.512c-.183-.03-.37-.057-.56-.08a4.623 4.623 0 00-.56-.034 2.99 2.99 0 00-1.244.263c-.392.178-.74.443-1.015.775a3.803 3.803 0 00-.69 1.265 5.472 5.472 0 00-.251 1.736v5.616H46.87v-11.8zM65.733 27.64h-2.558v-1.646h-.046a3.577 3.577 0 01-1.427 1.426c-.585.345-1.25.53-1.929.537-1.553 0-2.675-.383-3.368-1.15-.692-.767-1.037-1.927-1.035-3.482v-7.49h2.599v7.239c0 1.035.197 1.763.593 2.185.396.422.951.635 1.667.64.47.015.937-.07 1.37-.25.346-.152.65-.383.89-.674.238-.298.406-.645.492-1.016.102-.418.151-.848.148-1.279v-6.845h2.603l.001 11.805zm4.427-3.79c.077.761.366 1.294.868 1.598a3.41 3.41 0 001.803.46c.279-.003.557-.021.834-.057.3-.035.596-.108.879-.217a1.64 1.64 0 00.672-.468c.183-.23.27-.52.24-.811a1.15 1.15 0 00-.365-.821 2.54 2.54 0 00-.879-.514 8.686 8.686 0 00-1.221-.332c-.46-.09-.924-.19-1.393-.296a13.076 13.076 0 01-1.404-.388 4.526 4.526 0 01-1.21-.617c-.36-.26-.652-.6-.856-.993a3.175 3.175 0 01-.32-1.496 2.687 2.687 0 01.468-1.61 3.577 3.577 0 011.194-1.052 5.167 5.167 0 011.599-.56 9.438 9.438 0 011.678-.16 7.706 7.706 0 011.746.194 4.764 4.764 0 011.507.628c.45.291.832.677 1.119 1.13a3.91 3.91 0 01.559 1.679h-2.723c-.122-.625-.407-1.044-.855-1.256a3.566 3.566 0 00-1.542-.32 5.39 5.39 0 00-.65.046c-.243.028-.48.085-.708.171a1.485 1.485 0 00-.56.365.874.874 0 00-.23.628.991.991 0 00.331.777c.255.217.55.384.867.49.399.14.807.251 1.222.33.46.093.932.192 1.416.299.47.105.935.235 1.392.387.437.142.849.35 1.222.617.358.26.654.595.867.982.234.45.348.953.331 1.46 0 .7-.16 1.294-.48 1.781a3.782 3.782 0 01-1.244 1.187 5.636 5.636 0 01-1.7.663 8.632 8.632 0 01-1.85.205 8.025 8.025 0 01-2.07-.251 4.794 4.794 0 01-1.644-.765 3.68 3.68 0 01-1.096-1.278 4.055 4.055 0 01-.422-1.815h2.608zm8.584-8.015h1.963v-3.537h2.603v3.537h2.352v1.942h-2.35v6.3c-.003.237.009.474.034.71.016.176.07.347.16.5a.76.76 0 00.376.309c.221.078.455.113.69.103.183 0 .366 0 .547-.011a2.74 2.74 0 00.549-.08v2.009c-.29.03-.575.06-.845.09-.28.032-.563.047-.845.047a5.73 5.73 0 01-1.655-.195c-.372-.102-.71-.3-.982-.575a1.97 1.97 0 01-.48-.948 7.06 7.06 0 01-.148-1.3v-6.959h-1.968l-.001-1.942zm8.741 0h2.47v1.6H90a3.22 3.22 0 011.53-1.473 5.08 5.08 0 012.123-.445 5.647 5.647 0 012.431.49c.671.31 1.262.771 1.725 1.347a5.877 5.877 0 011.028 1.998c.233.793.35 1.616.345 2.443 0 .777-.103 1.55-.309 2.3a5.994 5.994 0 01-.936 1.975 4.686 4.686 0 01-1.587 1.37c-.638.342-1.391.514-2.26.514-.383 0-.765-.035-1.141-.104a4.91 4.91 0 01-1.096-.33 4.302 4.302 0 01-.971-.583 3.22 3.22 0 01-.742-.833h-.046v5.89H87.49l-.005-16.159zm9.087 5.915a5.863 5.863 0 00-.206-1.553 4.23 4.23 0 00-.612-1.334 3.184 3.184 0 00-1.027-.935 2.795 2.795 0 00-1.416-.355c-1.096 0-1.921.38-2.476 1.141-.556.761-.834 1.773-.834 3.036-.005.559.068 1.116.217 1.655.126.476.346.922.645 1.312.28.359.633.654 1.035.867.435.221.917.331 1.404.32a2.915 2.915 0 001.506-.364 3.195 3.195 0 001.017-.948c.273-.401.469-.85.575-1.324a6.741 6.741 0 00.176-1.518h-.004zm4.589-10.412h2.607v2.464h-2.603l-.004-2.464zm0 4.498h2.607V27.64h-2.603l-.004-11.805zm4.928-4.498h2.603V27.64h-2.598l-.005-16.302zm10.57 16.621a6.43 6.43 0 01-2.517-.47 5.362 5.362 0 01-1.873-1.29 5.516 5.516 0 01-1.163-1.962 8.031 8.031 0 010-5 5.509 5.509 0 011.164-1.963 5.402 5.402 0 011.872-1.287 7.046 7.046 0 015.045 0 5.406 5.406 0 011.872 1.29 5.51 5.51 0 011.165 1.964 8.031 8.031 0 010 5 5.51 5.51 0 01-1.165 1.963 5.364 5.364 0 01-1.872 1.285 6.438 6.438 0 01-2.523.47h-.005zm0-2.055a2.989 2.989 0 001.507-.364 3.182 3.182 0 001.051-.96 4.19 4.19 0 00.605-1.335 6.008 6.008 0 000-3.025 4.067 4.067 0 00-.605-1.336 3.226 3.226 0 00-1.051-.947 3.285 3.285 0 00-3.013 0 3.226 3.226 0 00-1.051.947 4.04 4.04 0 00-.604 1.336 5.963 5.963 0 000 3.025c.121.477.326.93.604 1.335.274.395.633.723 1.051.96.462.252.984.378 1.511.364h-.005zm6.713-10.069h1.963v-3.537h2.603v3.537h2.351v1.942h-2.351v6.3c-.002.237.009.474.034.71.016.176.071.347.16.5.088.142.22.25.376.309.222.078.456.113.69.103.183 0 .365 0 .548-.011.185-.008.368-.035.547-.08v2.009c-.288.03-.575.06-.844.09a7.48 7.48 0 01-.844.047 5.746 5.746 0 01-1.656-.195 2.2 2.2 0 01-.981-.575 1.967 1.967 0 01-.48-.948 7.025 7.025 0 01-.148-1.3v-6.959h-1.964l-.004-1.942z" fill="#191919"></path><path d="M31.206 11.338l-11.92-.002L15.603 0 11.92 11.335 0 11.333l9.644 7.009L5.961 29.68l9.643-7.007 9.641 7.007-3.683-11.335 9.644-7.007z" fill="#00B67A"></path><path d="M22.397 20.915l-.835-2.57-5.958 4.328 6.793-1.758z" fill="#005128"></path></g><defs><clipPath id="prefix__clip0"><path fill="#fff" d="M0 0h130.293v32H0z"></path></clipPath></defs></svg>